<?xml version="1.0" encoding="iso-8859-1"?>
<!-- Generator: Adobe Illustrator 16.0.0, SVG Export Plug-In . SVG Version: 6.00 Build 0)  -->
<!DOCTYPE svg PUBLIC "-//W3C//DTD SVG 1.1//EN" "http://www.w3.org/Graphics/SVG/1.1/DTD/svg11.dtd">
<svg version="1.1" id="Capa_1" xmlns="http://www.w3.org/2000/svg" xmlns:xlink="http://www.w3.org/1999/xlink" x="0px" y="0px"
	 width="612px" height="612px" viewBox="0 0 612 612" style="enable-background:new 0 0 612 612;" xml:space="preserve">
<g>
	<g id="_x34__33_">
		<g>
			<path d="M43.714,87.429c24.152,0,43.714-19.584,43.714-43.714S67.866,0,43.714,0C19.562,0,0,19.562,0,43.714
				C0,67.866,19.562,87.429,43.714,87.429z M568.286,87.429c24.151,0,43.714-19.584,43.714-43.714S592.438,0,568.286,0
				c-24.152,0-43.715,19.562-43.715,43.714C524.571,67.866,544.134,87.429,568.286,87.429z M568.286,480.857
				c7.584,0,14.841,1.268,21.856,3.082v-355.9c-7.016,1.836-14.272,3.104-21.856,3.104c-48.283,0-87.429-39.146-87.429-87.428
				c0-7.584,1.268-14.841,3.082-21.857H128.061c1.814,7.016,3.082,14.273,3.082,21.857c0,48.282-39.146,87.428-87.429,87.428
				c-7.584,0-14.841-1.268-21.857-3.104v355.9c7.016-1.814,14.273-3.082,21.857-3.082c48.282,0,87.429,39.146,87.429,87.429
				c0,7.584-1.268,14.841-3.082,21.856h355.9c-1.836-7.016-3.104-14.272-3.104-21.856
				C480.857,520.003,520.003,480.857,568.286,480.857z M43.714,524.571C19.562,524.571,0,544.134,0,568.286
				C0,592.438,19.562,612,43.714,612c24.152,0,43.714-19.562,43.714-43.714C87.429,544.134,67.866,524.571,43.714,524.571z
				 M568.286,524.571c-24.152,0-43.715,19.562-43.715,43.715c0,24.151,19.562,43.714,43.715,43.714
				C592.438,612,612,592.438,612,568.286C612,544.134,592.438,524.571,568.286,524.571z"/>
		</g>
	</g>
</g>
<g>
</g>
<g>
</g>
<g>
</g>
<g>
</g>
<g>
</g>
<g>
</g>
<g>
</g>
<g>
</g>
<g>
</g>
<g>
</g>
<g>
</g>
<g>
</g>
<g>
</g>
<g>
</g>
<g>
</g>
</svg>
